<?xml version="1.0" encoding="utf-8"?>
<!-- Generator: Adobe Illustrator 16.0.4, SVG Export Plug-In . SVG Version: 6.00 Build 0)  -->
<!DOCTYPE svg PUBLIC "-//W3C//DTD SVG 1.1//EN" "http://www.w3.org/Graphics/SVG/1.1/DTD/svg11.dtd">
<svg version="1.1" id="Layer_1" xmlns="http://www.w3.org/2000/svg" xmlns:xlink="http://www.w3.org/1999/xlink" x="0px" y="0px"
	 width="50px" height="50px" viewBox="0 0 50 50" enable-background="new 0 0 50 50" xml:space="preserve">
<path d="M25.892,29.331c0,0.433-0.094,0.812-0.279,1.14c-0.353,0.639-0.998,0.979-1.931,1.022v-4.306
	c0.684,0.185,1.168,0.381,1.457,0.588C25.64,28.132,25.892,28.648,25.892,29.331z M21.366,22.31
	c-0.308,0.408-0.459,0.836-0.459,1.285c0,0.539,0.18,0.963,0.54,1.268c0.359,0.306,0.847,0.521,1.455,0.639v-3.847
	C22.183,21.683,21.669,21.9,21.366,22.31z M39.501,10.509c1.029,1.031,0.416,3.26-1.396,5.073c-0.763,0.762-1.597,1.299-2.387,1.604
	l-0.318,6.256c-0.061,1.168-0.787,2.802-1.613,3.629L21.49,39.369c-0.828,0.828-2.184,0.828-3.012,0l-7.857-7.858
	c-0.827-0.827-0.827-2.182,0-3.009l12.299-12.299c0.827-0.827,2.46-1.553,3.629-1.611l6.286-0.32
	c0.307-0.782,0.839-1.606,1.596-2.361C36.242,10.093,38.472,9.478,39.501,10.509z M27.362,28.932c0-1.005-0.366-1.764-1.104-2.275
	c-0.453-0.311-1.311-0.645-2.578-0.999v-3.986c0.754,0.028,1.301,0.316,1.646,0.867c0.184,0.301,0.298,0.658,0.336,1.072h1.432
	c-0.027-0.924-0.332-1.67-0.914-2.232c-0.58-0.562-1.414-0.883-2.498-0.96v-1.071h-0.779v1.088
	c-1.096,0.013-1.947,0.351-2.557,1.017c-0.607,0.666-0.914,1.413-0.914,2.241c0,0.929,0.282,1.654,0.85,2.179
	c0.562,0.524,1.438,0.897,2.621,1.122v4.46c-0.924-0.077-1.555-0.422-1.896-1.04c-0.192-0.346-0.311-0.891-0.354-1.637h-1.448
	c0,0.938,0.157,1.684,0.467,2.234c0.568,1.021,1.646,1.582,3.231,1.687v1.587h0.779v-1.587c0.987-0.11,1.742-0.333,2.266-0.673
	C26.892,31.413,27.362,30.383,27.362,28.932z M34.53,17.467c-0.604,0.032-1.131-0.118-1.502-0.485
	c-0.375-0.377-0.527-0.918-0.486-1.537c-0.084,0.056-0.166,0.117-0.241,0.193c-0.563,0.564-0.563,1.483,0,2.051
	c0.566,0.565,1.482,0.565,2.05,0C34.419,17.619,34.479,17.544,34.53,17.467z M34.351,15.638c-0.338-0.338-0.804-0.47-1.242-0.404
	c-0.096,0.572-0.01,1.062,0.298,1.371c0.304,0.304,0.784,0.393,1.346,0.305C34.827,16.46,34.696,15.984,34.351,15.638z
	 M34.806,12.284c-0.621,0.616-1.084,1.303-1.381,1.955l0.326-0.017c1.166-0.062,2.075,0.846,2.016,2.017l-0.02,0.354
	c0.659-0.295,1.354-0.763,1.98-1.388c1.549-1.55,2.188-3.528,1.396-4.319C38.332,10.095,36.353,10.734,34.806,12.284z"/>
</svg>
