<?xml version="1.0" encoding="utf-8"?>
<!-- Generator: Adobe Illustrator 17.1.0, SVG Export Plug-In . SVG Version: 6.00 Build 0)  -->
<!DOCTYPE svg PUBLIC "-//W3C//DTD SVG 1.1//EN" "http://www.w3.org/Graphics/SVG/1.1/DTD/svg11.dtd">
<svg version="1.1" id="Layer_1" xmlns="http://www.w3.org/2000/svg" xmlns:xlink="http://www.w3.org/1999/xlink" x="0px" y="0px"
	 width="1000px" height="1000px" viewBox="0 0 1000 1000" enable-background="new 0 0 1000 1000" xml:space="preserve">
<g>
	<path fill="#1E120D" d="M29,185v630h89.303c12.165,61.489,66.505,108,131.512,108s119.347-46.511,131.512-108h237.348
		c12.165,61.489,66.505,108,131.512,108s119.347-46.511,131.512-108H971V474.577L671.413,185H29z M249.814,855
		c-27.176,0-50.563-16.498-60.695-40c-3.449-8.002-5.369-16.812-5.369-26.063c0-15.909,5.654-30.521,15.056-41.937
		c12.126-14.723,30.489-24.127,51.008-24.127s38.881,9.404,51.008,24.127c9.402,11.415,15.056,26.027,15.056,41.937
		c0,9.252-1.919,18.062-5.369,26.063C300.378,838.502,276.99,855,249.814,855z M750.186,855c-27.176,0-50.563-16.498-60.695-40
		c-3.449-8.002-5.369-16.812-5.369-26.063c0-15.909,5.654-30.521,15.056-41.937c12.126-14.723,30.489-24.127,51.008-24.127
		s38.881,9.404,51.008,24.127c9.402,11.415,15.056,26.027,15.056,41.937c0,9.252-1.919,18.062-5.369,26.063
		C800.749,838.502,777.361,855,750.186,855z M903,747h-25.476c-17.646-53.445-68.056-92.127-127.338-92.127
		S640.493,693.555,622.847,747H377.153c-17.646-53.445-68.056-92.127-127.338-92.127S140.122,693.555,122.476,747H97V253h526.667
		v270H903V747z M691.667,455V299.15L852.903,455H691.667z"/>
	<path fill="#1E120D" d="M143.755,523H580V290.884H143.755V523z M211.755,358.884H512V455H211.755V358.884z"/>
</g>
</svg>
