<?xml version="1.0" encoding="utf-8"?>
<!-- Generator: Adobe Illustrator 16.0.4, SVG Export Plug-In . SVG Version: 6.00 Build 0)  -->
<!DOCTYPE svg PUBLIC "-//W3C//DTD SVG 1.1//EN" "http://www.w3.org/Graphics/SVG/1.1/DTD/svg11.dtd">
<svg version="1.1" id="Layer_1" xmlns="http://www.w3.org/2000/svg" xmlns:xlink="http://www.w3.org/1999/xlink" x="0px" y="0px"
	 width="50px" height="50px" viewBox="0 0 50 50" enable-background="new 0 0 50 50" xml:space="preserve">
<path d="M41.326,19.206L25.75,10.211c-0.465-0.269-1.035-0.269-1.5,0L8.674,19.206c-0.464,0.269-0.75,0.763-0.75,1.299V38.49
	c0,0.829,0.672,1.5,1.5,1.5h31.152c0.828,0,1.5-0.671,1.5-1.5V20.505C42.076,19.969,41.791,19.475,41.326,19.206z M25,13.242
	l12.853,7.422L25,28.086l-12.853-7.422L25,13.242z M10.924,36.99V22.267l13.576,7.84c0.153,0.089,0.327,0.134,0.5,0.134
	s0.346-0.045,0.5-0.134l13.576-7.84V36.99H10.924z"/>
</svg>
