<?xml version="1.0" encoding="iso-8859-1"?>
<!-- Generator: Adobe Illustrator 17.0.2, SVG Export Plug-In . SVG Version: 6.00 Build 0)  -->
<!DOCTYPE svg PUBLIC "-//W3C//DTD SVG 1.1//EN" "http://www.w3.org/Graphics/SVG/1.1/DTD/svg11.dtd">
<svg version="1.1" id="Capa_1" xmlns="http://www.w3.org/2000/svg" xmlns:xlink="http://www.w3.org/1999/xlink" x="0px" y="0px"
	 width="64px" height="64px" viewBox="0 0 64 64" style="enable-background:new 0 0 64 64;" xml:space="preserve">
<g>
	<path d="M55,6.5H9C7.622,6.5,6.5,7.622,6.5,9v46c0,1.378,1.122,2.5,2.5,2.5h46c1.379,0,2.5-1.122,2.5-2.5V9
		C57.5,7.622,56.379,6.5,55,6.5z M54.5,54.5h-45v-45h45V54.5z"/>
	<path d="M14.271,52h35.458C50.981,52,52,50.981,52,49.729V14.271C52,13.019,50.981,12,49.729,12H14.271
		C13.019,12,12,13.019,12,14.271v35.458C12,50.981,13.019,52,14.271,52z M15,15h34v34H15V15z"/>
	<path d="M35.428,27.855c0-0.079,0-0.117-0.078-0.117c-0.312,0-6.624,0.896-8.727,1.052c-0.04,1.052-0.078,2.26-0.078,3.312
		l2.493,0.117v9.584c0,0.078-0.04,0.156-0.155,0.195l-2.065,0.078c-0.04,1.012-0.04,2.181-0.04,3.234c1.597,0,3.662-0.04,5.299-0.04
		c1.675,0,3.896,0,5.376,0c0-1.052,0-2.143,0-3.234l-2.143-0.078C35.311,38.062,35.391,32.061,35.428,27.855z"/>
	<path d="M31.65,25.439c1.948,0,3.661-1.404,3.661-3.507c0-1.637-1.207-3.155-3.467-3.155c-2.143,0-3.583,1.597-3.583,3.233
		C28.261,23.997,29.974,25.439,31.65,25.439z"/>
</g>
</svg>
