<?xml version="1.0" encoding="utf-8"?>
<!-- Generator: Adobe Illustrator 16.0.4, SVG Export Plug-In . SVG Version: 6.00 Build 0)  -->
<!DOCTYPE svg PUBLIC "-//W3C//DTD SVG 1.1//EN" "http://www.w3.org/Graphics/SVG/1.1/DTD/svg11.dtd">
<svg version="1.1" id="Layer_1" xmlns="http://www.w3.org/2000/svg" xmlns:xlink="http://www.w3.org/1999/xlink" x="0px" y="0px"
	 width="50px" height="50px" viewBox="0 0 50 50" enable-background="new 0 0 50 50" xml:space="preserve">
<path d="M44.643,20.661c-0.098-0.471-0.5-0.816-0.979-0.841l-6.431-0.338c-0.065-0.004-0.132,0-0.196,0.009l-5.06-2.518
	c-0.144,0.343-0.353,0.663-0.627,0.937l-0.743,0.742l3.992,1.987l-10.312,5.132l-10.001-4.979l3.399-1.692l-1.192-1.192
	c-0.168-0.168-0.312-0.354-0.431-0.551l-3.956,1.969l-3.763-3.021L18.9,11.052v-2.31c-0.101,0.017-0.2,0.048-0.295,0.095
	L5.921,15.15c-0.323,0.16-0.541,0.474-0.58,0.833S5.45,16.695,5.73,16.92l4.934,3.96v16.024c0,0.4,0.227,0.768,0.586,0.945
	l12.683,6.313c0.148,0.073,0.31,0.11,0.471,0.11c0.161,0,0.323-0.037,0.471-0.11L37.56,37.85c0.359-0.179,0.586-0.545,0.586-0.945
	V24.772l5.933-2.952C44.508,21.608,44.74,21.131,44.643,20.661z M23.35,41.511l-10.569-5.26V22.406l10.569,5.26V41.511z
	 M30.703,26.118l-1.926-0.101l8.783-4.373c0.017-0.008,0.03-0.018,0.045-0.027l1.933,0.102L30.703,26.118z M30.043,16.602
	l-5.374,5.373c-0.206,0.207-0.477,0.31-0.747,0.31s-0.541-0.103-0.748-0.31l-5.373-5.373c-0.302-0.302-0.393-0.757-0.229-1.151
	c0.164-0.395,0.549-0.652,0.977-0.652h2.202V6.784c0-0.584,0.474-1.057,1.057-1.057h4.229c0.584,0,1.057,0.473,1.057,1.057v8.015
	h2.202c0.428,0,0.812,0.257,0.977,0.652C30.435,15.845,30.345,16.3,30.043,16.602z"/>
</svg>
