<?xml version="1.0" encoding="utf-8"?>
<!-- Generator: Adobe Illustrator 15.0.0, SVG Export Plug-In . SVG Version: 6.00 Build 0)  -->
<!DOCTYPE svg PUBLIC "-//W3C//DTD SVG 1.1//EN" "http://www.w3.org/Graphics/SVG/1.1/DTD/svg11.dtd">
<svg version="1.1" id="Layer_1" xmlns="http://www.w3.org/2000/svg" xmlns:xlink="http://www.w3.org/1999/xlink" x="0px" y="0px"
	 width="26px" height="26px" viewBox="0 0 26 26" enable-background="new 0 0 26 26" xml:space="preserve">
<rect fill="none" width="26" height="26"/>
<path fill="#000000" d="M9,10.226c0,0.938-5,4.268-5,0c0-5.82,3.758-10.19,9.841-10.19c0.188,0,0.198,0.04,0.034,0.136
	C12.931,0.757,9,2.531,9,10.226z"/>
<polygon fill="#000000" stroke="#000000" stroke-linecap="round" stroke-linejoin="round" stroke-miterlimit="10" points="0.5,10.5 
	6.5,18.182 12.5,10.5 "/>
<path fill="#000000" d="M17,15.773c0-0.938,5-4.267,5,0c0,5.82-3.758,10.191-9.841,10.191c-0.188,0-0.198-0.04-0.034-0.137
	C13.069,25.242,17,23.469,17,15.773z"/>
<polygon fill="#000000" stroke="#000000" stroke-linecap="round" stroke-linejoin="round" stroke-miterlimit="10" points="
	25.5,15.5 19.5,7.818 13.5,15.5 "/>
</svg>
