<?xml version="1.0" encoding="utf-8"?>
<!-- Generator: Adobe Illustrator 16.0.4, SVG Export Plug-In . SVG Version: 6.00 Build 0)  -->
<!DOCTYPE svg PUBLIC "-//W3C//DTD SVG 1.1//EN" "http://www.w3.org/Graphics/SVG/1.1/DTD/svg11.dtd">
<svg version="1.1" id="Layer_1" xmlns="http://www.w3.org/2000/svg" xmlns:xlink="http://www.w3.org/1999/xlink" x="0px" y="0px"
	 width="50px" height="50px" viewBox="0 0 50 50" enable-background="new 0 0 50 50" xml:space="preserve">
<g>
	<path d="M34.867,20.377l-6.271-0.019c0.094-0.113,0.172-0.238,0.292-0.329c0.417-0.318,0.498-0.913,0.181-1.33
		c-0.318-0.416-0.912-0.499-1.33-0.181c-0.621,0.473-1.068,1.109-1.306,1.833l-2.827-0.008c-1.211,0-2.495,0.942-2.922,2.146
		l-2.15,6.048c-0.226,0.639-0.17,1.269,0.154,1.729c0.307,0.436,0.813,0.678,1.425,0.682l5.748,0.018
		c-0.192,0.66-0.599,1.225-1.191,1.582c-0.623,0.377-1.355,0.486-2.06,0.311c-0.509-0.126-1.023,0.184-1.15,0.691
		c-0.126,0.51,0.184,1.023,0.692,1.15c0.373,0.094,0.749,0.139,1.122,0.139c0.83,0,1.647-0.227,2.375-0.666
		c1.059-0.639,1.805-1.653,2.1-2.854c0.029-0.116,0.029-0.233,0.016-0.346l3.604,0.011h0.006c0.373,0,0.746-0.113,1.106-0.273
		c0.026,0.063,0.042,0.129,0.084,0.188c0.425,0.595,0.591,1.317,0.47,2.037c-0.121,0.716-0.513,1.342-1.106,1.765
		c-0.427,0.303-0.527,0.896-0.224,1.322c0.186,0.26,0.477,0.398,0.773,0.398c0.189,0,0.382-0.055,0.549-0.174
		c1.008-0.715,1.676-1.779,1.881-2.996c0.205-1.219-0.078-2.446-0.799-3.455c-0.062-0.088-0.145-0.152-0.227-0.211
		c0.168-0.234,0.318-0.479,0.412-0.746l2.149-6.046c0.228-0.639,0.171-1.27-0.153-1.73C35.982,20.623,35.479,20.379,34.867,20.377z
		 M35.729,22.536l-2.148,6.046c-0.125,0.351-0.375,0.664-0.664,0.933c-0.043,0.021-0.09,0.03-0.131,0.06
		c-0.086,0.062-0.15,0.143-0.209,0.223c-0.377,0.254-0.801,0.425-1.201,0.425v0.38l-0.006-0.38l-4.229-0.013
		c-0.029-0.01-0.053-0.033-0.084-0.041c-0.182-0.045-0.357-0.019-0.521,0.039l-3.792-0.012l0.152-0.429
		c0.07-0.197-0.034-0.414-0.231-0.483c-0.194-0.07-0.414,0.03-0.484,0.229l-0.242,0.68l-1.824-0.006
		c-0.357,0-0.645-0.127-0.807-0.358c-0.183-0.259-0.204-0.627-0.059-1.037l2.15-6.048c0.316-0.889,1.327-1.639,2.211-1.639
		l1.556,0.005l-0.25,0.705c-0.071,0.197,0.033,0.414,0.23,0.484c0.042,0.015,0.084,0.022,0.127,0.022
		c0.156,0,0.302-0.098,0.356-0.253l0.318-0.894c0.008-0.021-0.006-0.041-0.002-0.062h0.32c-0.115,0.988,0.148,1.964,0.757,2.756
		c0.752,0.979,1.892,1.494,3.042,1.494c0.811,0,1.626-0.255,2.316-0.781c0.416-0.317,0.498-0.913,0.181-1.33
		c-0.319-0.416-0.912-0.497-1.331-0.18c-0.842,0.644-2.057,0.481-2.703-0.358c-0.312-0.407-0.445-0.909-0.378-1.416
		c0.008-0.064,0.046-0.117,0.062-0.179l6.652,0.02c0.357,0,0.643,0.128,0.805,0.358C35.851,21.751,35.873,22.131,35.729,22.536z"/>
	<path d="M23.758,26.203c-0.195-0.07-0.414,0.031-0.484,0.229l-0.548,1.54c-0.07,0.197,0.034,0.414,0.231,0.484
		c0.042,0.015,0.084,0.021,0.127,0.021c0.155,0,0.302-0.098,0.357-0.253l0.547-1.54C24.06,26.49,23.956,26.272,23.758,26.203z"/>
	<path d="M24.854,23.123c-0.195-0.069-0.414,0.032-0.485,0.23l-0.547,1.54c-0.07,0.197,0.033,0.414,0.229,0.484
		c0.042,0.015,0.084,0.022,0.127,0.022c0.156,0,0.302-0.098,0.358-0.253l0.547-1.54C25.154,23.41,25.05,23.192,24.854,23.123z"/>
	<path d="M39.621,21.52l-1.897-0.005h-0.001c-0.209,0-0.379,0.169-0.381,0.379c0,0.209,0.17,0.38,0.38,0.381l1.897,0.005l0,0
		c0.209,0,0.379-0.169,0.381-0.379C40,21.69,39.83,21.521,39.621,21.52z"/>
	<path d="M38.068,20.247c0.079,0,0.158-0.024,0.225-0.074l1.529-1.125c0.168-0.124,0.205-0.362,0.081-0.531
		c-0.122-0.169-0.362-0.205-0.53-0.081l-1.529,1.125c-0.168,0.124-0.205,0.362-0.081,0.531
		C37.836,20.192,37.951,20.247,38.068,20.247z"/>
	<path d="M36.644,17.17c-0.197-0.07-0.414,0.034-0.483,0.23l-0.636,1.788c-0.069,0.197,0.033,0.414,0.229,0.485
		c0.043,0.015,0.086,0.022,0.127,0.022c0.158,0,0.303-0.097,0.359-0.253l0.635-1.788C36.944,17.458,36.84,17.242,36.644,17.17z"/>
	<path d="M12.241,22.853h7.033c0.209,0,0.379-0.171,0.379-0.38s-0.17-0.38-0.379-0.38h-7.033c-0.209,0-0.38,0.17-0.38,0.38
		S12.032,22.853,12.241,22.853z"/>
	<path d="M18.723,25.201c0-0.209-0.171-0.38-0.38-0.38h-7.032c-0.209,0-0.38,0.17-0.38,0.38c0,0.209,0.171,0.379,0.38,0.379h7.032
		C18.551,25.58,18.723,25.41,18.723,25.201z"/>
	<path d="M17.413,27.549h-7.033c-0.209,0-0.379,0.17-0.379,0.38c0,0.209,0.17,0.38,0.379,0.38h7.033c0.209,0,0.38-0.171,0.38-0.38
		C17.792,27.719,17.622,27.549,17.413,27.549z"/>
	<circle cx="31.606" cy="16.307" r="2.727"/>
</g>
</svg>
