<?xml version="1.0" encoding="utf-8"?>
<!-- Generator: Adobe Illustrator 17.1.0, SVG Export Plug-In . SVG Version: 6.00 Build 0)  -->
<!DOCTYPE svg PUBLIC "-//W3C//DTD SVG 1.1//EN" "http://www.w3.org/Graphics/SVG/1.1/DTD/svg11.dtd">
<svg version="1.1" id="Layer_1" xmlns="http://www.w3.org/2000/svg" xmlns:xlink="http://www.w3.org/1999/xlink" x="0px" y="0px"
	 width="1000px" height="1000px" viewBox="0 0 1000 1000" enable-background="new 0 0 1000 1000" xml:space="preserve">
<g>
	<path fill="#211915" d="M976.434,283.4l-587.341,0.225l8.311-93.217H227.27v65h49.888h49.193l-2.7,30.287l-14.006,157.11H27v65
		h276.85l-4.283,48.044H170.529v65h123.243l-2.67,29.946h553.891L976.434,283.4z M362.155,585.796l6.953-77.99h53.196v-65h-47.401
		l8.396-94.179l500.834-0.191l-84.919,237.36H362.155z"/>
	<path fill="#211915" d="M653.999,846.086c16.736,19.827,42.046,31.199,69.442,31.199c53.688,0,102.879-41.885,111.986-95.355
		c4.705-27.622-2.32-54.984-19.273-75.069c-16.736-19.827-42.046-31.199-69.442-31.199h-374.45
		c-53.689,0-102.879,41.885-111.986,95.354c-4.705,27.623,2.32,54.985,19.273,75.07c16.736,19.827,42.046,31.199,69.441,31.199
		c53.688,0,102.878-41.885,111.986-95.355c2.408-14.139,1.736-28.207-1.761-41.269h185.457c-4.72,9.498-8.132,19.695-9.948,30.354
		C630.021,798.639,637.045,826,653.999,846.086z M392.033,748.786c4.643,5.501,6.372,13.396,4.867,22.229
		c-3.745,21.984-26.132,41.27-47.909,41.27c-8.447,0-15.284-2.81-19.771-8.125c-4.644-5.501-6.372-13.396-4.867-22.23
		c3.745-21.984,26.132-41.269,47.909-41.269C380.709,740.661,387.546,743.471,392.033,748.786z M766.483,748.786
		c4.643,5.501,6.372,13.396,4.867,22.229c-3.745,21.984-26.132,41.27-47.909,41.27c-8.448,0-15.284-2.81-19.771-8.125
		c-4.644-5.501-6.372-13.396-4.867-22.23c3.745-21.984,26.132-41.269,47.909-41.269
		C755.159,740.661,761.996,743.471,766.483,748.786z"/>
	<rect x="105.951" y="334.032" fill="#211915" width="174.728" height="65"/>
</g>
</svg>
