<?xml version="1.0" encoding="iso-8859-1"?>
<!-- Generator: Adobe Illustrator 16.0.4, SVG Export Plug-In . SVG Version: 6.00 Build 0)  -->
<!DOCTYPE svg PUBLIC "-//W3C//DTD SVG 1.1//EN" "http://www.w3.org/Graphics/SVG/1.1/DTD/svg11.dtd">
<svg version="1.1" id="Capa_1" xmlns="http://www.w3.org/2000/svg" xmlns:xlink="http://www.w3.org/1999/xlink" x="0px" y="0px"
	 width="87.606px" height="82.132px" viewBox="0 0 87.606 82.132" style="enable-background:new 0 0 87.606 82.132;"
	 xml:space="preserve">
<g id="Message">
	<g>
		<path d="M43.803,0C19.65,0,0,16.218,0,36.146c0,10.79,5.871,21.02,15.849,27.858c-1.355,5.139-4.251,8.165-4.264,8.176
			c-1.5,1.497-2.048,3.764-1.433,5.919c0.048,0.171,0.109,0.337,0.182,0.503c0.925,2.145,3.053,3.529,5.419,3.529
			c9.595,0,17.517-5.197,22.845-10.096c1.794,0.171,3.537,0.257,5.206,0.257c24.153,0,43.803-16.212,43.803-36.146
			C87.606,16.218,67.956,0,43.803,0z M43.803,63.94c-1.93,0-4-0.139-6.149-0.417c-1.292-0.155-2.591,0.272-3.516,1.188
			c-3.128,3.106-7.612,6.667-12.897,8.245c1.436-2.583,2.866-6.08,3.443-10.39c0.222-1.657-0.572-3.288-2.023-4.144
			C13.603,53.092,8.405,44.97,8.405,36.146c0-15.325,15.878-27.794,35.398-27.794s35.398,12.469,35.398,27.794
			C79.201,51.477,63.323,63.94,43.803,63.94z M62.355,28.329H26.628c-1.16,0-2.102,0.936-2.102,2.091
			c0,1.149,0.941,2.085,2.102,2.085h35.727c1.16,0,2.101-0.936,2.101-2.085C64.456,29.265,63.515,28.329,62.355,28.329z
			 M62.355,40.558H26.628c-1.16,0-2.102,0.936-2.102,2.091c0,1.149,0.941,2.085,2.102,2.085h35.727c1.16,0,2.101-0.936,2.101-2.085
			C64.456,41.493,63.515,40.558,62.355,40.558z"/>
	</g>
</g>
<g>
</g>
<g>
</g>
<g>
</g>
<g>
</g>
<g>
</g>
<g>
</g>
<g>
</g>
<g>
</g>
<g>
</g>
<g>
</g>
<g>
</g>
<g>
</g>
<g>
</g>
<g>
</g>
<g>
</g>
</svg>
