<?xml version="1.0" encoding="iso-8859-1"?>
<!-- Generator: Adobe Illustrator 16.0.0, SVG Export Plug-In . SVG Version: 6.00 Build 0)  -->
<!DOCTYPE svg PUBLIC "-//W3C//DTD SVG 1.1//EN" "http://www.w3.org/Graphics/SVG/1.1/DTD/svg11.dtd">
<svg version="1.1" xmlns="http://www.w3.org/2000/svg" xmlns:xlink="http://www.w3.org/1999/xlink" x="0px" y="0px" width="512px"
	 height="512px" viewBox="0 0 512 512" style="enable-background:new 0 0 512 512;" xml:space="preserve">
<g id="Guides_For_Artboard">
</g>
<g id="_x30_">
</g>
<g id="_x31_">
</g>
<g id="_x32_">
</g>
<g id="_x33_">
</g>
<g id="_x34_">
</g>
<g id="_x35_">
</g>
<g id="_x36_">
</g>
<g id="_x37_">
</g>
<g id="_x38_">
</g>
<g id="_x39_">
</g>
<g id="_x31_0">
</g>
<g id="_x31_1">
</g>
<g id="_x31_2">
</g>
<g id="_x31_3">
</g>
<g id="_x31_4">
</g>
<g id="_x31_5">
</g>
<g id="_x31_6">
</g>
<g id="_x31_7">
</g>
<g id="_x31_8">
</g>
<g id="_x31_9">
</g>
<g id="_x32_0">
</g>
<g id="_x32_1">
	<g>
		<path d="M271.885,203.455c0.089-1.613,0.136-3.228,0.136-4.834c0-55.241-50.974-101.91-111.312-101.91
			c-60.338,0-111.313,46.669-111.313,101.91c0,1.606,0.048,3.222,0.138,4.834c-22.211,9.583-37.762,31.669-37.762,57.397v118.732
			c0,34.515,27.978,62.491,62.491,62.491h172.892c34.513,0,62.491-27.977,62.491-62.491V260.852
			C309.648,235.124,294.096,213.038,271.885,203.455z M160.71,134.205c39.224,0,73.635,29.95,73.81,64.156H86.9
			C87.074,164.155,121.486,134.205,160.71,134.205z M129.311,363.45l-14.894-26.414l-4.917,5.338v21.076H81.68V263.132h27.82v48.474
			l17.702-21.077h31.473l-25.993,27.539l30.069,45.383H129.311z M241.29,354.037c0,2.436-0.141,4.986-0.422,7.657
			c-0.281,2.669-0.892,5.291-1.827,7.867c-0.937,2.575-2.248,5.035-3.933,7.377c-1.687,2.34-3.935,4.401-6.745,6.181
			c-2.809,1.778-6.252,3.182-10.326,4.216c-4.075,1.029-8.971,1.545-14.683,1.545c-4.31,0-8.595-0.35-12.857-1.054
			c-4.262-0.702-8.148-1.945-11.66-3.722c-3.513-1.781-6.487-4.241-8.922-7.377c-2.437-3.14-3.983-7.19-4.637-12.153h27.539
			c0.186,0.372,0.421,0.772,0.703,1.195c0.282,0.42,0.562,0.864,0.843,1.333c0.844,1.311,1.966,2.53,3.372,3.654
			c1.404,1.125,2.996,1.686,4.776,1.686c2.249,0,4.075-0.585,5.48-1.756c1.406-1.173,2.53-2.624,3.372-4.355
			c0.844-1.735,1.404-3.559,1.687-5.479c0.281-1.919,0.422-3.629,0.422-5.129v-6.744h-0.281c-2.248,3.279-5.013,5.785-8.29,7.517
			c-3.28,1.734-7.026,2.599-11.24,2.599c-5.34,0-9.975-0.935-13.91-2.809c-3.935-1.873-7.189-4.427-9.765-7.658
			c-2.576-3.231-4.475-7.001-5.691-11.31c-1.217-4.308-1.826-8.897-1.826-13.768c0-4.778,0.679-9.273,2.037-13.489
			c1.358-4.215,3.349-7.89,5.971-11.029s5.902-5.642,9.836-7.517c3.933-1.874,8.522-2.81,13.769-2.81
			c4.121,0,7.938,0.842,11.45,2.528c3.514,1.688,6.064,4.404,7.659,8.15h0.281v-8.853h27.819V354.037z"/>
		<path d="M198.088,308.935c-1.967,0-3.701,0.4-5.198,1.194c-1.5,0.797-2.74,1.852-3.724,3.161
			c-0.983,1.313-1.709,2.834-2.177,4.566c-0.47,1.735-0.703,3.583-0.703,5.55c0,2.062,0.187,4.145,0.563,6.253
			c0.371,2.106,1.029,4.028,1.966,5.761c0.936,1.733,2.2,3.138,3.794,4.214c1.591,1.079,3.652,1.616,6.183,1.616
			c2.527,0,4.565-0.561,6.112-1.687c1.545-1.123,2.689-2.55,3.44-4.286c0.75-1.731,1.242-3.652,1.477-5.758
			c0.231-2.108,0.351-4.191,0.351-6.252c0-4.027-0.984-7.425-2.952-10.188C205.254,310.318,202.21,308.935,198.088,308.935z"/>
		<path d="M418.124,224.554c-1.458,0-2.745,0.296-3.855,0.885c-1.113,0.59-2.032,1.374-2.761,2.345
			c-0.729,0.973-1.269,2.103-1.615,3.387c-0.349,1.286-0.521,2.657-0.521,4.117c0,1.529,0.139,3.073,0.418,4.636
			c0.276,1.563,0.763,2.987,1.458,4.274c0.694,1.284,1.632,2.326,2.814,3.125c1.181,0.8,2.71,1.198,4.585,1.198
			c1.875,0,3.387-0.417,4.534-1.25c1.146-0.833,1.996-1.892,2.552-3.18c0.556-1.284,0.92-2.708,1.094-4.27
			c0.172-1.564,0.261-3.109,0.261-4.637c0-2.988-0.73-5.507-2.188-7.556C423.44,225.58,421.18,224.554,418.124,224.554z"/>
		<path d="M473.88,146.321c0.066-1.195,0.104-2.393,0.104-3.583c0-40.989-37.806-75.616-82.557-75.616
			c-44.75,0-82.555,34.627-82.555,75.616c0,1.19,0.039,2.387,0.106,3.583c-10.225,4.411-18.548,12.393-23.39,22.379
			c2.512,8.284,3.981,16.947,4.253,25.872c23.14,13.361,37.672,38.126,37.672,65.287v63.439h128.027
			c25.597,0,46.348-20.75,46.348-46.347v-88.059C501.89,169.811,490.355,153.428,473.88,146.321z M391.427,94.93
			c29.091,0,54.613,22.228,54.743,47.615H336.686C336.816,117.157,362.337,94.93,391.427,94.93z M368.14,264.984l-11.046-19.59
			l-3.646,3.96v15.63h-20.633v-74.402h20.633v35.95l13.129-15.629h23.342l-19.279,20.424l22.301,33.657H368.14z M451.19,258.003
			c0,1.808-0.104,3.698-0.313,5.679c-0.208,1.98-0.661,3.924-1.355,5.835c-0.694,1.911-1.667,3.734-2.917,5.471
			c-1.251,1.735-2.918,3.265-5.002,4.585c-2.084,1.318-4.637,2.36-7.659,3.126c-3.021,0.764-6.653,1.147-10.889,1.147
			c-3.197,0-6.375-0.26-9.535-0.781c-3.162-0.521-6.044-1.444-8.649-2.762c-2.604-1.32-4.811-3.145-6.617-5.471
			c-1.807-2.329-2.954-5.333-3.438-9.014h20.423c0.138,0.276,0.313,0.573,0.521,0.885c0.21,0.313,0.418,0.641,0.625,0.99
			c0.626,0.972,1.458,1.876,2.5,2.709c1.042,0.835,2.223,1.251,3.543,1.251c1.668,0,3.023-0.434,4.065-1.302
			c1.041-0.87,1.875-1.946,2.5-3.231c0.626-1.287,1.042-2.64,1.251-4.063c0.208-1.423,0.312-2.692,0.312-3.804v-5.002h-0.208
			c-1.667,2.433-3.718,4.29-6.148,5.574c-2.432,1.288-5.21,1.929-8.335,1.929c-3.961,0-7.4-0.693-10.317-2.084
			c-2.917-1.389-5.333-3.283-7.242-5.679c-1.911-2.397-3.318-5.193-4.22-8.389c-0.902-3.194-1.354-6.599-1.354-10.212
			c0-3.542,0.503-6.877,1.51-10.003c1.007-3.126,2.483-5.853,4.429-8.18c1.944-2.328,4.376-4.185,7.295-5.576
			c2.917-1.389,6.32-2.083,10.212-2.083c3.056,0,5.888,0.623,8.491,1.874c2.607,1.251,4.499,3.268,5.68,6.045h0.208v-6.564h20.633
			V258.003z"/>
	</g>
</g>
<g id="_x32_2">
</g>
<g id="_x32_3">
</g>
<g id="_x32_4">
</g>
<g id="_x32_5">
</g>
<g id="_x32_6">
</g>
<g id="_x32_7">
</g>
<g id="_x32_8">
</g>
<g id="_x32_9">
</g>
<g id="_x33_0">
</g>
<g id="_x33_1">
</g>
<g id="_x33_2">
</g>
<g id="_x33_3">
</g>
<g id="_x33_4">
</g>
<g id="_x33_5">
</g>
<g id="_x33_6">
</g>
<g id="_x33_7">
</g>
<g id="_x33_8">
</g>
<g id="_x33_9">
</g>
<g id="_x34_0">
</g>
<g id="_x34_1">
</g>
<g id="_x34_2">
</g>
<g id="_x34_3">
</g>
<g id="_x34_4">
</g>
<g id="_x34_5">
</g>
<g id="_x34_6">
</g>
<g id="_x34_7">
</g>
<g id="_x34_8">
</g>
<g id="_x34_9">
</g>
<g id="_x35_0">
</g>
<g id="_x35_1">
</g>
<g id="_x35_2">
</g>
<g id="_x35_3">
</g>
<g id="_x35_4">
</g>
<g id="_x35_5">
</g>
<g id="_x35_6">
</g>
<g id="_x35_7">
</g>
<g id="_x35_8">
</g>
<g id="_x35_9">
</g>
<g id="_x36_0">
</g>
<g id="_x36_1">
</g>
<g id="_x36_2">
</g>
<g id="_x36_3">
</g>
<g id="_x36_4">
</g>
<g id="_x36_5">
</g>
<g id="_x36_6">
</g>
<g id="_x36_7">
</g>
<g id="_x36_8">
</g>
<g id="_x36_9">
</g>
<g id="_x37_0">
</g>
</svg>
