<?xml version="1.0" encoding="utf-8"?>
<!-- Generator: Adobe Illustrator 17.1.0, SVG Export Plug-In . SVG Version: 6.00 Build 0)  -->
<!DOCTYPE svg PUBLIC "-//W3C//DTD SVG 1.1//EN" "http://www.w3.org/Graphics/SVG/1.1/DTD/svg11.dtd">
<svg version="1.1" id="Layer_1" xmlns="http://www.w3.org/2000/svg" xmlns:xlink="http://www.w3.org/1999/xlink" x="0px" y="0px"
	 width="1000px" height="1000px" viewBox="0 0 1000 1000" enable-background="new 0 0 1000 1000" xml:space="preserve">
<g>
	<path fill="#1E120D" d="M909.071,247.447L686.484,24.859H90.928v950.281h818.143V247.447z M706.401,140.942l86.588,86.588h-86.588
		V140.942z M841.071,907.141H158.928V92.859h479.473V295.53h202.67V907.141z"/>
	<rect x="454.093" y="395.251" fill="#1E120D" width="329.983" height="68"/>
	<polygon fill="#1E120D" points="276.333,565.222 249.611,538.499 201.527,586.582 276.333,661.389 399.906,537.816 
		351.823,489.733 	"/>
	<polygon fill="#1E120D" points="276.333,734.604 249.611,707.881 201.528,755.964 276.333,830.771 399.906,707.198 
		351.823,659.115 	"/>
	<polygon fill="#1E120D" points="276.333,395.84 249.611,369.117 201.528,417.2 276.333,492.006 399.906,368.434 351.823,320.351 	
		"/>
	<rect x="454.093" y="564.743" fill="#1E120D" width="329.983" height="68"/>
	<rect x="454.093" y="734.234" fill="#1E120D" width="329.983" height="68"/>
</g>
</svg>
